<?xml version="1.0" ?><!DOCTYPE svg  PUBLIC '-//W3C//DTD SVG 1.1//EN'  'http://www.w3.org/Graphics/SVG/1.1/DTD/svg11.dtd'><svg enable-background="new -0.709 -5.882 141.732 141.732" height="141.732px" id="Livello_1" version="1.1" viewBox="-0.709 -5.882 141.732 141.732" width="141.732px" xml:space="preserve" xmlns="http://www.w3.org/2000/svg" xmlns:xlink="http://www.w3.org/1999/xlink"><g id="Livello_65"><path d="M99.24,122.219c-0.068,0.281,0.084,0.571,0.342,0.646l1.514,0.444L99.999,124c-0.229,0.146-0.31,0.47-0.177,0.724   c0.134,0.253,0.429,0.339,0.659,0.192l1.097-0.693l-0.404,1.662c-0.067,0.281,0.084,0.571,0.343,0.646   c0.257,0.075,0.521-0.092,0.59-0.373l0.655-2.686l2.241-1.421l0.01,0.005h0.001l0.001,2.231l-1.79,1.964   c-0.188,0.207-0.188,0.542,0,0.748c0.188,0.207,0.49,0.207,0.682,0.001l1.108-1.218l0.001,1.391c0,0.293,0.216,0.528,0.479,0.528   c0.269,0,0.481-0.235,0.481-0.527v-1.387L107.08,127c0.188,0.207,0.492,0.207,0.684,0.001c0.188-0.207,0.188-0.542,0-0.748   l-1.788-1.962v-2.237l0.001,0.002l0.006-0.004l2.244,1.422l0.653,2.687c0.069,0.28,0.334,0.447,0.594,0.374   c0.257-0.075,0.408-0.365,0.341-0.647l-0.407-1.662l1.099,0.694c0.229,0.146,0.524,0.061,0.658-0.192   c0.133-0.253,0.053-0.577-0.178-0.724l-1.094-0.692l1.51-0.441c0.258-0.076,0.41-0.366,0.342-0.647   c-0.066-0.282-0.333-0.449-0.592-0.374l-2.439,0.718l-1.767-1.118l1.767-1.116l2.44,0.719c0.258,0.075,0.521-0.092,0.592-0.374   c0.068-0.281-0.084-0.571-0.343-0.648l-1.51-0.441l1.093-0.691c0.229-0.146,0.312-0.471,0.178-0.724   c-0.135-0.253-0.429-0.34-0.659-0.192l-1.097,0.693l0.405-1.662c0.067-0.281-0.084-0.572-0.341-0.647   c-0.26-0.074-0.521,0.094-0.592,0.374l-0.653,2.686l-2.244,1.422l-0.008-0.005h-0.001v-2.231l1.79-1.965   c0.188-0.206,0.188-0.541,0-0.748c-0.188-0.206-0.494-0.206-0.685,0l-1.106,1.217v-1.391c0-0.292-0.218-0.528-0.482-0.528   s-0.479,0.236-0.479,0.528v1.387l-1.106-1.214c-0.188-0.206-0.492-0.207-0.682,0c-0.188,0.206-0.188,0.541,0.001,0.748l1.788,1.962   v2.236l-0.001-0.001l-0.009,0.004l-2.241-1.422l-0.657-2.687c-0.068-0.28-0.333-0.449-0.59-0.374   c-0.259,0.075-0.41,0.365-0.343,0.646l0.405,1.662l-1.097-0.693c-0.23-0.146-0.525-0.061-0.659,0.192   c-0.133,0.253-0.054,0.575,0.178,0.724l1.096,0.692l-1.513,0.441c-0.258,0.075-0.408,0.365-0.34,0.646   c0.068,0.282,0.333,0.45,0.59,0.374l2.441-0.717l1.766,1.116l-1.766,1.118l-2.441-0.719   C99.573,121.768,99.31,121.936,99.24,122.219 M100.94,74.499v2.229l-1.79,1.965c-0.188,0.207-0.188,0.542,0,0.748   c0.188,0.206,0.494,0.206,0.683,0l1.107-1.216l0.001,1.389c0,0.292,0.216,0.529,0.479,0.529c0.27,0,0.481-0.236,0.481-0.528V78.23   l1.105,1.213c0.188,0.207,0.492,0.207,0.683,0c0.188-0.206,0.188-0.541-0.001-0.748l-1.788-1.961v-2.236l0.001,0.002l0.007-0.004   l2.243,1.422l0.657,2.686c0.067,0.282,0.333,0.449,0.59,0.374c0.258-0.077,0.41-0.366,0.342-0.646l-0.406-1.662l1.099,0.693   c0.229,0.146,0.523,0.062,0.658-0.191c0.134-0.253,0.055-0.577-0.179-0.726l-1.095-0.69l1.512-0.442   c0.257-0.076,0.408-0.367,0.341-0.646c-0.067-0.282-0.334-0.449-0.591-0.374l-2.439,0.717l-1.768-1.117l1.768-1.117l2.439,0.718   c0.259,0.076,0.521-0.091,0.591-0.372c0.07-0.281-0.084-0.571-0.341-0.647l-1.512-0.443l1.094-0.69   c0.23-0.146,0.312-0.472,0.178-0.725c-0.134-0.253-0.429-0.34-0.657-0.192l-1.098,0.692l0.403-1.663   c0.069-0.279-0.084-0.569-0.341-0.646s-0.521,0.093-0.59,0.374l-0.655,2.685l-2.243,1.423l-0.008-0.006H101.9l-0.001-2.23   l1.79-1.965c0.188-0.206,0.188-0.541,0-0.748c-0.188-0.206-0.493-0.207-0.684,0L101.9,69.55l-0.001-1.39   c0-0.295-0.216-0.529-0.481-0.529c-0.267,0-0.479,0.234-0.479,0.529v1.385l-1.105-1.213c-0.188-0.207-0.492-0.207-0.682,0   c-0.188,0.206-0.188,0.541,0,0.748l1.788,1.962v2.235l-0.001-0.002l-0.006,0.005l-2.244-1.422l-0.656-2.686   c-0.068-0.281-0.334-0.449-0.591-0.374s-0.41,0.365-0.341,0.646l0.405,1.662l-1.099-0.692c-0.229-0.146-0.524-0.062-0.658,0.191   s-0.055,0.576,0.18,0.725l1.094,0.69l-1.51,0.443c-0.261,0.075-0.41,0.365-0.343,0.646c0.067,0.282,0.332,0.45,0.593,0.374   l2.438-0.717l1.768,1.118l-1.768,1.117l-2.439-0.72c-0.26-0.075-0.522,0.093-0.594,0.374c-0.065,0.281,0.084,0.571,0.345,0.646   l1.51,0.443l-1.093,0.69c-0.231,0.146-0.312,0.472-0.18,0.725c0.137,0.254,0.431,0.34,0.659,0.192l1.097-0.692l-0.403,1.661   c-0.069,0.281,0.084,0.571,0.341,0.647c0.257,0.074,0.521-0.093,0.59-0.374l0.655-2.686l2.244-1.422L100.94,74.499L100.94,74.499z    M85.779,101.24c-0.068,0.281,0.084,0.572,0.342,0.647l1.512,0.443l-1.095,0.69c-0.229,0.146-0.31,0.472-0.177,0.726   c0.134,0.253,0.429,0.339,0.659,0.191l1.096-0.692l-0.403,1.661c-0.067,0.281,0.082,0.57,0.343,0.647   c0.257,0.075,0.521-0.092,0.59-0.374l0.653-2.686l2.243-1.422l0.007,0.006h0.004l0.001,2.23l-1.791,1.964   c-0.188,0.207-0.188,0.542,0.001,0.748c0.188,0.207,0.49,0.207,0.682,0.001l1.108-1.217l0.001,1.389   c0,0.292,0.216,0.529,0.479,0.529c0.269,0,0.481-0.236,0.481-0.528v-1.386l1.104,1.213c0.188,0.207,0.493,0.207,0.685,0.001   c0.188-0.207,0.188-0.542,0-0.749l-1.788-1.961l-0.001-2.236l0.001,0.002l0.007-0.005l2.244,1.423l0.653,2.686   c0.068,0.282,0.334,0.449,0.594,0.374c0.257-0.076,0.408-0.366,0.341-0.646l-0.407-1.662l1.098,0.693   c0.229,0.146,0.524,0.062,0.658-0.191s0.054-0.576-0.177-0.725l-1.094-0.691l1.51-0.442c0.257-0.076,0.41-0.366,0.341-0.646   c-0.067-0.282-0.332-0.449-0.591-0.374l-2.44,0.717l-1.766-1.117l1.766-1.117l2.441,0.719c0.258,0.075,0.521-0.092,0.59-0.374   c0.069-0.28-0.083-0.57-0.341-0.646l-1.51-0.444l1.093-0.69c0.229-0.146,0.311-0.472,0.177-0.725s-0.429-0.34-0.658-0.191   l-1.098,0.691l0.406-1.662c0.067-0.279-0.084-0.57-0.341-0.646c-0.26-0.075-0.522,0.093-0.594,0.374l-0.651,2.685l-2.244,1.422   l-0.008-0.005h-0.001v-2.23l1.79-1.965c0.188-0.206,0.188-0.541,0-0.748c-0.188-0.206-0.494-0.207-0.685,0l-1.106,1.217v-1.391   c0-0.292-0.218-0.528-0.482-0.528s-0.48,0.236-0.48,0.528v1.387l-1.104-1.214c-0.188-0.207-0.493-0.207-0.682,0   c-0.188,0.206-0.188,0.541,0,0.748l1.786,1.962v2.235V99.86l-0.007,0.003L89.3,98.442l-0.655-2.686   c-0.069-0.281-0.333-0.449-0.59-0.374c-0.26,0.075-0.41,0.365-0.344,0.646l0.405,1.663l-1.096-0.692   c-0.23-0.146-0.525-0.062-0.659,0.191c-0.133,0.253-0.054,0.576,0.178,0.725l1.093,0.691l-1.51,0.442   c-0.258,0.075-0.408,0.365-0.342,0.646c0.07,0.282,0.334,0.45,0.592,0.374l2.441-0.717l1.765,1.118l-1.766,1.117l-2.44-0.72   C86.112,100.792,85.849,100.96,85.779,101.24 M85.405,83.035c0.258-0.075,0.41-0.365,0.342-0.646   c-0.066-0.282-0.334-0.45-0.592-0.375l-2.44,0.718l-1.766-1.118l1.766-1.116l2.441,0.719c0.258,0.075,0.521-0.092,0.591-0.374   c0.068-0.281-0.084-0.571-0.342-0.647l-1.51-0.442l1.093-0.691c0.231-0.146,0.311-0.47,0.177-0.724   c-0.134-0.253-0.429-0.34-0.657-0.192l-1.098,0.693l0.405-1.662c0.066-0.281-0.084-0.571-0.341-0.647   c-0.26-0.073-0.521,0.094-0.593,0.374l-0.653,2.687l-2.244,1.421l-0.007-0.005h-0.001l-0.001-2.231l1.791-1.964   c0.188-0.207,0.188-0.542,0-0.748c-0.188-0.207-0.494-0.207-0.685-0.001l-1.106,1.217v-1.39c0-0.293-0.218-0.528-0.482-0.528   s-0.479,0.235-0.479,0.527l0.001,1.387l-1.106-1.213c-0.188-0.207-0.493-0.207-0.682-0.001c-0.188,0.207-0.188,0.542,0,0.748   l1.788,1.962l0.001,2.237l-0.001-0.002L79.005,81l-2.242-1.422l-0.656-2.687c-0.068-0.282-0.333-0.449-0.591-0.374   c-0.259,0.075-0.409,0.365-0.343,0.646l0.406,1.663l-1.098-0.694c-0.229-0.146-0.524-0.062-0.658,0.191   C73.69,78.579,73.77,78.904,74,79.051l1.097,0.692l-1.513,0.441c-0.257,0.076-0.409,0.366-0.341,0.647   c0.068,0.28,0.334,0.447,0.591,0.374l2.44-0.72l1.766,1.118l-1.766,1.118l-2.441-0.719c-0.257-0.075-0.521,0.092-0.59,0.373   c-0.068,0.282,0.084,0.571,0.341,0.646l1.513,0.444l-1.096,0.691c-0.229,0.146-0.311,0.471-0.176,0.724   c0.133,0.253,0.428,0.34,0.657,0.191l1.098-0.692l-0.405,1.662c-0.067,0.28,0.085,0.571,0.343,0.646   c0.258,0.075,0.521-0.092,0.591-0.374l0.655-2.684l2.241-1.422l0.01,0.005h0.001v2.23l-1.79,1.966   c-0.188,0.206-0.188,0.541,0,0.748c0.188,0.205,0.494,0.205,0.682,0l1.109-1.219v1.393c0,0.292,0.216,0.525,0.48,0.526   c0.269,0,0.481-0.234,0.481-0.526l-0.001-1.389l1.104,1.216c0.188,0.205,0.494,0.207,0.685,0c0.188-0.206,0.188-0.542,0-0.748   l-1.788-1.963l-0.001-2.235l0.001,0.001l0.007-0.004l2.244,1.422l0.656,2.685c0.066,0.282,0.333,0.45,0.591,0.374   c0.257-0.073,0.409-0.363,0.34-0.646l-0.405-1.662l1.097,0.693c0.229,0.146,0.525,0.061,0.658-0.192s0.057-0.576-0.178-0.724   l-1.093-0.692L85.405,83.035z M73.015,124.479c-0.069,0.282,0.084,0.572,0.342,0.647l1.511,0.442l-1.094,0.692   c-0.23,0.146-0.312,0.469-0.177,0.723c0.134,0.253,0.428,0.34,0.656,0.193l1.099-0.694l-0.405,1.662   c-0.068,0.282,0.084,0.572,0.342,0.647c0.257,0.074,0.521-0.093,0.59-0.374l0.655-2.687l2.243-1.422l0.009,0.006l0.001,2.232   l-1.79,1.964c-0.188,0.207-0.188,0.542,0,0.749c0.188,0.206,0.493,0.206,0.685,0l1.106-1.218v1.39c0,0.293,0.216,0.529,0.481,0.529   c0.267,0,0.479-0.236,0.479-0.528v-1.386l1.105,1.214c0.188,0.206,0.493,0.206,0.683,0c0.188-0.207,0.188-0.542-0.001-0.748   l-1.788-1.962v-2.237l0.001,0.001l0.007-0.004L82,125.739l0.656,2.687c0.069,0.282,0.333,0.449,0.591,0.374   c0.258-0.074,0.409-0.364,0.342-0.646l-0.404-1.663l1.096,0.695c0.231,0.146,0.526,0.062,0.659-0.193   c0.133-0.253,0.055-0.575-0.177-0.723l-1.097-0.692l1.514-0.442c0.257-0.074,0.407-0.365,0.34-0.646   c-0.069-0.281-0.333-0.448-0.59-0.375l-2.442,0.72l-1.765-1.118l1.765-1.118l2.442,0.72c0.258,0.075,0.521-0.092,0.591-0.374   c0.066-0.281-0.084-0.571-0.341-0.646l-1.514-0.443l1.097-0.691c0.229-0.146,0.309-0.471,0.176-0.724s-0.428-0.341-0.659-0.192   l-1.096,0.693l0.403-1.662c0.067-0.281-0.085-0.571-0.342-0.646c-0.258-0.075-0.521,0.092-0.591,0.374L82,121.676l-2.243,1.421   l-0.008-0.005h-0.001l-0.001-2.233l1.79-1.964c0.188-0.206,0.188-0.541,0-0.748c-0.188-0.206-0.493-0.206-0.683,0l-1.107,1.217   l-0.001-1.39c0-0.292-0.217-0.528-0.479-0.529c-0.269,0-0.481,0.237-0.481,0.529v1.385l-1.104-1.213   c-0.188-0.206-0.493-0.206-0.684,0c-0.188,0.207-0.188,0.542,0,0.748l1.788,1.962v2.237l-0.001-0.001l-0.007,0.004l-2.243-1.423   l-0.656-2.687c-0.066-0.28-0.334-0.448-0.591-0.374c-0.258,0.075-0.41,0.365-0.342,0.647l0.407,1.663l-1.099-0.695   c-0.229-0.146-0.524-0.061-0.657,0.192c-0.136,0.254-0.057,0.576,0.177,0.724l1.095,0.692l-1.511,0.441   c-0.258,0.075-0.41,0.365-0.341,0.647c0.066,0.281,0.333,0.449,0.591,0.375l2.439-0.719l1.767,1.117l-1.767,1.117l-2.44-0.719   C73.349,124.029,73.083,124.196,73.015,124.479 M60.706,103.432c-0.065,0.281,0.084,0.571,0.342,0.646l1.513,0.442l-1.095,0.691   c-0.229,0.146-0.312,0.471-0.178,0.724c0.135,0.252,0.429,0.34,0.658,0.193l1.097-0.693l-0.402,1.662   c-0.069,0.281,0.084,0.571,0.341,0.646c0.257,0.074,0.521-0.094,0.59-0.373l0.655-2.687l2.244-1.421l0.008,0.004h0.001v2.231   l-1.79,1.966c-0.188,0.206-0.188,0.542,0,0.748c0.188,0.207,0.494,0.207,0.683,0L66.479,107v1.391c0,0.292,0.216,0.528,0.479,0.528   c0.269,0,0.481-0.235,0.481-0.528v-1.386l1.104,1.214c0.188,0.207,0.493,0.207,0.685,0c0.188-0.206,0.188-0.541-0.001-0.748   l-1.788-1.962v-2.237l0.001,0.001l0.006-0.003l2.244,1.42l0.657,2.688c0.066,0.28,0.333,0.448,0.59,0.375   c0.257-0.076,0.41-0.365,0.341-0.647l-0.406-1.662l1.1,0.694c0.229,0.146,0.523,0.061,0.657-0.194   c0.135-0.252,0.056-0.574-0.178-0.722l-1.094-0.692l1.51-0.441c0.258-0.076,0.409-0.365,0.341-0.647   c-0.066-0.282-0.333-0.45-0.59-0.374l-2.439,0.717l-1.767-1.116l1.768-1.117l2.438,0.719c0.258,0.075,0.521-0.093,0.591-0.374   c0.068-0.282-0.084-0.572-0.341-0.646l-1.512-0.444l1.095-0.691c0.229-0.146,0.312-0.47,0.176-0.724   c-0.133-0.253-0.428-0.34-0.656-0.193l-1.099,0.693l0.404-1.661c0.069-0.282-0.083-0.572-0.341-0.646   c-0.257-0.076-0.521,0.092-0.59,0.373l-0.655,2.685l-2.244,1.422l-0.008-0.005l-0.001-2.231l1.79-1.965   c0.188-0.206,0.188-0.541,0-0.748c-0.188-0.207-0.493-0.207-0.684,0l-1.106,1.217l-0.001-1.39c0-0.292-0.216-0.528-0.481-0.528   c-0.267,0-0.479,0.236-0.479,0.528v1.385l-1.105-1.213c-0.188-0.207-0.493-0.207-0.682,0c-0.188,0.206-0.188,0.541,0,0.748   l1.788,1.962v2.236v-0.002l-0.007,0.006l-2.244-1.423l-0.656-2.687c-0.068-0.28-0.334-0.448-0.591-0.375   c-0.257,0.076-0.41,0.366-0.341,0.648l0.404,1.661l-1.098-0.694c-0.229-0.146-0.524-0.06-0.658,0.193s-0.055,0.576,0.177,0.724   l1.097,0.691l-1.513,0.443c-0.257,0.074-0.407,0.364-0.341,0.646c0.068,0.281,0.333,0.449,0.591,0.374l2.44-0.718l1.767,1.118   l-1.767,1.115l-2.44-0.718C61.04,102.981,60.775,103.148,60.706,103.432 M58.337,82.927l1.1,0.694   c0.229,0.146,0.522,0.061,0.658-0.192c0.134-0.253,0.055-0.576-0.179-0.724l-1.095-0.692l1.511-0.443   c0.257-0.073,0.41-0.363,0.341-0.646c-0.066-0.281-0.332-0.449-0.591-0.375l-2.438,0.719l-1.768-1.118l1.768-1.118l2.439,0.721   c0.258,0.074,0.521-0.094,0.59-0.374c0.069-0.281-0.082-0.571-0.341-0.647l-1.511-0.442l1.094-0.692   c0.23-0.146,0.312-0.469,0.18-0.723c-0.137-0.254-0.431-0.343-0.659-0.192l-1.099,0.693l0.405-1.662   c0.068-0.281-0.084-0.571-0.342-0.647c-0.257-0.075-0.521,0.092-0.591,0.374l-0.654,2.687l-2.243,1.421l-0.009-0.005h-0.001V77.31   l1.79-1.965c0.188-0.207,0.188-0.542,0-0.748c-0.188-0.207-0.494-0.207-0.682-0.001l-1.109,1.218v-1.39   c0-0.293-0.216-0.528-0.48-0.528c-0.269,0-0.48,0.235-0.48,0.527v1.387l-1.105-1.215c-0.188-0.206-0.493-0.206-0.683,0   c-0.188,0.207-0.188,0.542,0.001,0.748l1.787,1.962l0.001,2.238l-0.001-0.002l-0.006,0.004l-2.244-1.422l-0.657-2.687   c-0.068-0.282-0.333-0.449-0.59-0.374c-0.257,0.074-0.41,0.364-0.341,0.646l0.404,1.663l-1.097-0.695   c-0.229-0.146-0.523-0.062-0.659,0.193c-0.133,0.253-0.055,0.575,0.18,0.723l1.093,0.692l-1.51,0.442   c-0.259,0.076-0.409,0.365-0.343,0.647c0.068,0.28,0.334,0.447,0.593,0.374l2.439-0.72l1.767,1.118l-1.768,1.118l-2.438-0.72   c-0.261-0.074-0.522,0.093-0.593,0.374c-0.067,0.282,0.084,0.57,0.343,0.646l1.511,0.445l-1.094,0.691   c-0.23,0.146-0.312,0.47-0.179,0.724c0.136,0.253,0.431,0.34,0.659,0.192l1.096-0.693l-0.403,1.661   c-0.067,0.282,0.084,0.57,0.342,0.646c0.258,0.075,0.521-0.092,0.591-0.374l0.654-2.684l2.244-1.423l0.007,0.006h0.001l0.001,2.229   l-1.79,1.967c-0.188,0.206-0.188,0.541,0,0.748c0.188,0.206,0.493,0.206,0.683,0l1.107-1.219l0.001,1.392   c0,0.292,0.217,0.527,0.48,0.527c0.267,0,0.48-0.235,0.48-0.527V84.49l1.105,1.216c0.188,0.206,0.491,0.206,0.682,0   c0.188-0.207,0.188-0.542,0-0.748l-1.788-1.962V80.76v0.001l0.008-0.005l2.243,1.423l0.656,2.685   c0.067,0.282,0.334,0.45,0.591,0.374c0.258-0.073,0.41-0.363,0.342-0.646L58.337,82.927z M46.789,122.219   c-0.066,0.281,0.083,0.571,0.341,0.646l1.513,0.444L47.548,124c-0.229,0.146-0.312,0.47-0.178,0.724   c0.135,0.253,0.43,0.339,0.658,0.192l1.097-0.693l-0.402,1.662c-0.069,0.281,0.084,0.571,0.341,0.646   c0.257,0.075,0.521-0.092,0.591-0.373l0.654-2.686l2.244-1.421l0.008,0.005h0.001v2.231l-1.79,1.964   c-0.188,0.207-0.188,0.542,0,0.748c0.188,0.207,0.494,0.207,0.683,0.001l1.108-1.218v1.391c0,0.293,0.216,0.528,0.479,0.528   c0.27,0,0.481-0.235,0.481-0.527v-1.387L54.627,127c0.188,0.207,0.493,0.207,0.685,0.001c0.188-0.207,0.188-0.542,0-0.748   l-1.788-1.962l-0.001-2.237l0.001,0.002l0.007-0.004l2.243,1.422l0.657,2.687c0.066,0.28,0.333,0.447,0.59,0.374   c0.258-0.075,0.41-0.365,0.341-0.647l-0.405-1.662l1.099,0.694c0.229,0.146,0.523,0.061,0.657-0.192   c0.135-0.253,0.056-0.577-0.178-0.724l-1.094-0.692l1.511-0.441c0.257-0.076,0.408-0.366,0.34-0.647   c-0.066-0.282-0.333-0.449-0.59-0.374l-2.439,0.718l-1.767-1.118l1.768-1.116l2.438,0.719c0.258,0.075,0.521-0.092,0.591-0.374   c0.068-0.281-0.084-0.571-0.341-0.648l-1.512-0.441l1.095-0.691c0.229-0.146,0.312-0.471,0.176-0.724   c-0.133-0.253-0.429-0.34-0.656-0.192l-1.099,0.693l0.405-1.662c0.068-0.281-0.084-0.572-0.342-0.647   c-0.257-0.074-0.521,0.094-0.59,0.374l-0.655,2.686l-2.244,1.422l-0.007-0.005h-0.001l-0.001-2.231l1.791-1.965   c0.188-0.206,0.188-0.541-0.001-0.748c-0.188-0.206-0.493-0.206-0.684,0l-1.106,1.217l-0.001-1.391   c0-0.292-0.216-0.528-0.481-0.528c-0.267,0-0.479,0.236-0.479,0.528v1.387l-1.104-1.214c-0.188-0.206-0.494-0.207-0.683,0   c-0.188,0.206-0.188,0.541,0,0.748l1.788,1.962v2.236v-0.001l-0.007,0.004l-2.244-1.422l-0.656-2.687   c-0.068-0.28-0.334-0.449-0.591-0.374s-0.41,0.365-0.341,0.646l0.404,1.662l-1.098-0.693c-0.229-0.146-0.524-0.061-0.657,0.192   c-0.135,0.253-0.056,0.575,0.176,0.724l1.097,0.692l-1.513,0.441c-0.257,0.075-0.407,0.365-0.341,0.646   c0.068,0.282,0.333,0.45,0.591,0.374l2.44-0.717l1.767,1.116l-1.767,1.118l-2.44-0.719   C47.122,121.768,46.857,121.936,46.789,122.219 M34.252,103.432c-0.066,0.281,0.085,0.571,0.344,0.646l1.511,0.442l-1.094,0.691   c-0.23,0.146-0.312,0.471-0.179,0.724c0.136,0.252,0.431,0.34,0.659,0.193l1.096-0.693l-0.402,1.662   c-0.068,0.281,0.084,0.571,0.341,0.646c0.258,0.074,0.521-0.094,0.591-0.373l0.654-2.687l2.244-1.421l0.008,0.004l0.001,2.231   l-1.79,1.966c-0.188,0.206-0.188,0.542,0,0.748c0.188,0.207,0.493,0.207,0.683,0L40.024,107l0.001,1.391   c0,0.292,0.216,0.528,0.48,0.528c0.268,0,0.48-0.235,0.48-0.528v-1.386l1.105,1.214c0.188,0.207,0.491,0.207,0.682,0   c0.188-0.206,0.188-0.541,0-0.748l-1.788-1.962v-2.237v0.001l0.008-0.003l2.243,1.42l0.656,2.688   c0.067,0.28,0.334,0.448,0.591,0.375c0.258-0.076,0.41-0.365,0.342-0.647l-0.407-1.662l1.1,0.694   c0.229,0.146,0.523,0.061,0.657-0.194c0.135-0.252,0.056-0.574-0.178-0.722l-1.095-0.692l1.511-0.441   c0.259-0.076,0.409-0.365,0.341-0.647c-0.066-0.282-0.332-0.45-0.591-0.374l-2.438,0.717l-1.768-1.116l1.768-1.117l2.439,0.719   c0.258,0.075,0.521-0.093,0.592-0.374c0.066-0.282-0.084-0.572-0.343-0.646l-1.511-0.444l1.094-0.691   c0.23-0.146,0.312-0.47,0.178-0.724c-0.135-0.253-0.429-0.34-0.657-0.193l-1.099,0.693l0.404-1.661   c0.069-0.282-0.084-0.572-0.341-0.646c-0.257-0.076-0.521,0.092-0.59,0.373l-0.655,2.685l-2.243,1.422l-0.009-0.005h-0.001v-2.231   l1.79-1.965c0.188-0.206,0.188-0.541,0-0.748c-0.188-0.207-0.494-0.207-0.684,0l-1.107,1.217v-1.39   c0-0.292-0.216-0.528-0.481-0.528c-0.267,0-0.479,0.236-0.479,0.528v1.385l-1.105-1.213c-0.188-0.207-0.493-0.207-0.683,0   c-0.188,0.206-0.188,0.541,0.001,0.748l1.788,1.962v2.236l-0.001-0.002l-0.006,0.006l-2.244-1.423l-0.657-2.687   c-0.068-0.28-0.333-0.448-0.59-0.375c-0.257,0.076-0.41,0.366-0.341,0.648l0.404,1.661l-1.097-0.694   c-0.229-0.146-0.525-0.06-0.659,0.193c-0.133,0.253-0.055,0.576,0.18,0.724l1.093,0.691l-1.509,0.443   c-0.26,0.074-0.41,0.364-0.344,0.646c0.068,0.281,0.334,0.449,0.593,0.374l2.439-0.718l1.765,1.118l-1.766,1.115l-2.438-0.718   C34.585,102.981,34.321,103.148,34.252,103.432 M26.374,80.271c-0.066,0.282,0.084,0.572,0.342,0.646l1.513,0.442l-1.097,0.692   c-0.229,0.146-0.31,0.469-0.176,0.723c0.133,0.254,0.431,0.34,0.658,0.194l1.098-0.694l-0.404,1.662   c-0.068,0.282,0.084,0.572,0.342,0.647c0.257,0.075,0.521-0.092,0.59-0.374l0.655-2.687l2.244-1.421l0.007,0.005h0.001l0.001,2.231   l-1.791,1.965c-0.188,0.207-0.188,0.542,0.001,0.748c0.188,0.207,0.493,0.207,0.683,0l1.107-1.217l0.001,1.39   c0,0.292,0.216,0.529,0.479,0.529c0.269,0,0.481-0.237,0.481-0.529V83.84l1.104,1.213c0.188,0.207,0.493,0.207,0.684,0.001   c0.188-0.207,0.188-0.542,0-0.749l-1.788-1.961l-0.001-2.238l0.001,0.002l0.007-0.004l2.244,1.422l0.656,2.687   c0.066,0.282,0.334,0.449,0.591,0.374s0.41-0.365,0.341-0.647l-0.406-1.662l1.1,0.695c0.229,0.146,0.522,0.06,0.655-0.193   c0.137-0.253,0.057-0.575-0.176-0.723l-1.095-0.693l1.511-0.441c0.257-0.075,0.409-0.365,0.341-0.648   c-0.066-0.281-0.333-0.448-0.591-0.374l-2.438,0.718L34.08,79.5l1.768-1.117l2.439,0.72c0.257,0.075,0.521-0.092,0.59-0.374   c0.069-0.282-0.083-0.572-0.341-0.646l-1.511-0.443l1.094-0.693c0.23-0.146,0.312-0.469,0.177-0.722   c-0.134-0.253-0.429-0.341-0.656-0.194l-1.1,0.69l0.405-1.662c0.069-0.283-0.084-0.572-0.341-0.646   c-0.257-0.076-0.521,0.092-0.591,0.374l-0.654,2.685l-2.244,1.422l-0.008-0.005h-0.001v-2.232l1.79-1.965   c0.188-0.206,0.188-0.541,0-0.748c-0.188-0.207-0.494-0.207-0.684,0l-1.107,1.218V73.77c0-0.292-0.216-0.529-0.481-0.529   c-0.267,0-0.479,0.237-0.479,0.529v1.386l-1.105-1.214c-0.188-0.207-0.493-0.207-0.683,0c-0.188,0.206-0.188,0.541,0,0.748   l1.788,1.962l0.001,2.237l-0.001-0.002l-0.006,0.005l-2.244-1.422l-0.657-2.688c-0.068-0.28-0.333-0.448-0.59-0.372   c-0.257,0.073-0.41,0.363-0.341,0.646l0.403,1.662l-1.097-0.694c-0.229-0.146-0.524-0.061-0.658,0.193   c-0.134,0.253-0.055,0.575,0.177,0.723l1.096,0.691l-1.512,0.442c-0.258,0.074-0.407,0.365-0.341,0.647   c0.068,0.281,0.333,0.449,0.591,0.374l2.44-0.718l1.765,1.118l-1.766,1.116l-2.439-0.719   C26.707,79.821,26.443,79.989,26.374,80.271 M140.315,32.295C140.315,14.459,125.972,0,108.278,0   c-7.17,0-13.789,2.376-19.127,6.388C83.812,2.376,77.193,0,70.023,0c-15.87,0-29.037,11.637-31.584,26.901   c-2.079-0.771-4.325-1.193-6.67-1.193c-8.369,0-15.49,5.375-18.159,12.886c-0.275-0.021-0.554-0.03-0.834-0.03   C5.721,38.562,0,44.389,0,51.576c0,7.088,5.562,12.848,12.482,13.006v0.008h95.953v-0.004   C126.058,64.499,140.315,50.077,140.315,32.295"/></g><g id="Livello_1_1_"/></svg>